<svg width="1000" height="1000" viewBox="0 0 1000 1000" fill="none" xmlns="http://www.w3.org/2000/svg">
<path d="M1000 0H0V1000H1000V0Z" fill="white"/>
<path d="M500 689.7C679.493 689.7 825 676.716 825 660.7C825 644.684 679.493 631.7 500 631.7C320.507 631.7 175 644.684 175 660.7C175 676.716 320.507 689.7 500 689.7Z" fill="#493B3B"/>
<path d="M403.5 384.6H319.5V370.6C319.5 361.8 326.7 354.6 335.5 354.6H387.5C396.3 354.6 403.5 361.8 403.5 370.6V384.6Z" fill="#C1A7A7"/>
<path d="M403.5 384.6H319.5V370.6C319.5 361.8 326.7 354.6 335.5 354.6H387.5C396.3 354.6 403.5 361.8 403.5 370.6V384.6Z" stroke="#493B3B" stroke-width="6" stroke-miterlimit="10" stroke-linecap="round" stroke-linejoin="round"/>
<path d="M398.8 357.9V384.6" stroke="#493B3B" stroke-width="4" stroke-miterlimit="10" stroke-linecap="round" stroke-linejoin="round"/>
<path d="M389.8 357.9V384.6" stroke="#493B3B" stroke-width="4" stroke-miterlimit="10" stroke-linecap="round" stroke-linejoin="round"/>
<path d="M380.8 357.9V384.6" stroke="#493B3B" stroke-width="4" stroke-miterlimit="10" stroke-linecap="round" stroke-linejoin="round"/>
<path d="M371.8 357.9V384.6" stroke="#493B3B" stroke-width="4" stroke-miterlimit="10" stroke-linecap="round" stroke-linejoin="round"/>
<path d="M362.8 357.9V384.6" stroke="#493B3B" stroke-width="4" stroke-miterlimit="10" stroke-linecap="round" stroke-linejoin="round"/>
<path d="M353.8 357.9V384.6" stroke="#493B3B" stroke-width="4" stroke-miterlimit="10" stroke-linecap="round" stroke-linejoin="round"/>
<path d="M344.8 357.9V384.6" stroke="#493B3B" stroke-width="4" stroke-miterlimit="10" stroke-linecap="round" stroke-linejoin="round"/>
<path d="M335.8 357.9V384.6" stroke="#493B3B" stroke-width="4" stroke-miterlimit="10" stroke-linecap="round" stroke-linejoin="round"/>
<path d="M326.8 357.9V384.6" stroke="#493B3B" stroke-width="4" stroke-miterlimit="10" stroke-linecap="round" stroke-linejoin="round"/>
<path d="M744.9 348.7H422.9C414 348.7 405.8 353 400.4 360C389.1 375 371.1 384.7 350.9 384.7H232.9V636.7C232.9 650 243.6 660.7 256.9 660.7H744.9C758.2 660.7 768.9 650 768.9 636.7V372.7C768.9 359.4 758.1 348.7 744.9 348.7Z" fill="#E2A86D"/>
<path d="M261.9 428.4H232.9V632.5H261.9V428.4Z" fill="#D6975F"/>
<path d="M768.9 428.4H739.9V632.5H768.9V428.4Z" fill="#D6975F"/>
<path d="M390.1 615.9L440.4 593.7L421 549.8L370.7 572C358.6 577.4 353.1 591.5 358.4 603.6C363.8 615.8 378 621.2 390.1 615.9Z" fill="#E5D6D6"/>
<path d="M390.1 615.9L440.4 593.7L421 549.8L370.7 572C358.6 577.4 353.1 591.5 358.4 603.6C363.8 615.8 378 621.2 390.1 615.9Z" stroke="#493B3B" stroke-width="6" stroke-miterlimit="10" stroke-linecap="round" stroke-linejoin="round"/>
<path d="M380.4 608.3C388.353 608.3 394.8 601.853 394.8 593.9C394.8 585.947 388.353 579.5 380.4 579.5C372.447 579.5 366 585.947 366 593.9C366 601.853 372.447 608.3 380.4 608.3Z" fill="#EFE6E6"/>
<path d="M380.4 608.3C388.353 608.3 394.8 601.853 394.8 593.9C394.8 585.947 388.353 579.5 380.4 579.5C372.447 579.5 366 585.947 366 593.9C366 601.853 372.447 608.3 380.4 608.3Z" stroke="#493B3B" stroke-width="4" stroke-miterlimit="10" stroke-linecap="round" stroke-linejoin="round"/>
<path d="M232.9 632.5V636.6C232.9 649.9 243.6 660.6 256.9 660.6H744.9C758.2 660.6 768.9 649.9 768.9 636.6V632.5H232.9Z" fill="#E5D6D6"/>
<path opacity="0.2" d="M500.9 431.3C438.2 431.3 387.4 482.3 387.4 545.1C387.4 553.1 388.2 560.9 389.8 568.5L370.7 576.9C358.6 582.3 353.1 596.4 358.4 608.5C363.8 620.6 377.9 626.1 390 620.8L409.2 612.3C429.8 640.6 463.2 658.9 500.8 658.9C563.5 658.9 614.3 607.9 614.3 545.1C614.4 482.3 563.6 431.3 500.9 431.3Z" fill="#2D2D2D" stroke="#2D2D2D" stroke-width="8" stroke-miterlimit="10" stroke-linecap="round" stroke-linejoin="round"/>
<path d="M744.9 660.7H739.9V632.6H768.9V636.7C768.9 649.9 758.1 660.7 744.9 660.7Z" fill="#DBC8C8"/>
<path d="M256.9 660.7H261.9V632.6H232.9V636.7C232.9 649.9 243.6 660.7 256.9 660.7Z" fill="#DBC8C8"/>
<path d="M744.9 348.4H422.9C414 348.4 405.7 352.7 400.4 359.8C389.1 374.9 371.1 384.6 350.9 384.6H232.9V428.4H768.9V372.5C768.9 359.2 758.1 348.4 744.9 348.4Z" fill="#E5D6D6"/>
<path d="M261.9 385.6H232.9V428.4H261.9V385.6Z" fill="#DBC8C8"/>
<path d="M600.1 412.6H265.1C263.3 412.6 261.8 411.1 261.8 409.3C261.8 407.5 263.3 406 265.1 406H600.1C601.9 406 603.4 407.5 603.4 409.3C603.4 411.1 601.9 412.6 600.1 412.6Z" fill="#C1A7A7"/>
<path d="M744.8 348.4H739.8V428.4H768.8V372.4C768.8 359.2 758.1 348.4 744.8 348.4Z" fill="#DBC8C8"/>
<path d="M500.9 642C563.584 642 614.4 591.05 614.4 528.2C614.4 465.35 563.584 414.4 500.9 414.4C438.216 414.4 387.4 465.35 387.4 528.2C387.4 591.05 438.216 642 500.9 642Z" fill="#E5D6D6"/>
<path d="M500.9 619.2C551.158 619.2 591.9 578.458 591.9 528.2C591.9 477.942 551.158 437.2 500.9 437.2C450.642 437.2 409.9 477.942 409.9 528.2C409.9 578.458 450.642 619.2 500.9 619.2Z" fill="#845B5B"/>
<path d="M500.9 457.2C547.7 457.2 586.4 492.7 591.3 538.2C591.7 534.9 591.9 531.6 591.9 528.2C591.9 478 551.1 437.2 500.9 437.2C450.7 437.2 409.9 478 409.9 528.2C409.9 531.6 410.1 534.9 410.5 538.2C415.4 492.7 454.1 457.2 500.9 457.2Z" fill="#704848"/>
<path d="M744.9 348.7H422.9C414 348.7 405.8 353 400.4 360C389.1 375 371.1 384.7 350.9 384.7H232.9V636.7C232.9 650 243.6 660.7 256.9 660.7H744.9C758.2 660.7 768.9 650 768.9 636.7V372.7C768.9 359.4 758.1 348.7 744.9 348.7Z" stroke="#493B3B" stroke-width="6" stroke-miterlimit="10" stroke-linecap="round" stroke-linejoin="round"/>
<path d="M500.9 630.7C557.509 630.7 603.4 584.809 603.4 528.2C603.4 471.591 557.509 425.7 500.9 425.7C444.291 425.7 398.4 471.591 398.4 528.2C398.4 584.809 444.291 630.7 500.9 630.7Z" stroke="#493B3B" stroke-width="3" stroke-miterlimit="10" stroke-linecap="round" stroke-linejoin="round"/>
<path d="M500.9 619.2C551.158 619.2 591.9 578.458 591.9 528.2C591.9 477.942 551.158 437.2 500.9 437.2C450.642 437.2 409.9 477.942 409.9 528.2C409.9 578.458 450.642 619.2 500.9 619.2Z" stroke="#493B3B" stroke-width="8" stroke-miterlimit="10" stroke-linecap="round" stroke-linejoin="round"/>
<path d="M500.9 590.2C535.142 590.2 562.9 562.442 562.9 528.2C562.9 493.959 535.142 466.2 500.9 466.2C466.658 466.2 438.9 493.959 438.9 528.2C438.9 562.442 466.658 590.2 500.9 590.2Z" fill="#B57F7F"/>
<path opacity="0.34" d="M543.6 528.2C573.6 528.2 590.1 563.2 570.9 586.2C554.2 606.3 529 619.2 500.9 619.2C472.8 619.2 447.6 606.4 430.9 586.2C411.7 563.1 428.3 528.2 458.2 528.2H543.6Z" fill="white"/>
<path d="M500.9 486.2C531.7 486.2 557.3 508.8 562.1 538.2C562.6 534.9 562.9 531.6 562.9 528.2C562.9 494 535.1 466.2 500.9 466.2C466.7 466.2 438.9 494 438.9 528.2C438.9 531.6 439.2 534.9 439.7 538.2C444.5 508.7 470.1 486.2 500.9 486.2Z" fill="#AD6D6D"/>
<path d="M500.9 590.2C535.142 590.2 562.9 562.442 562.9 528.2C562.9 493.959 535.142 466.2 500.9 466.2C466.658 466.2 438.9 493.959 438.9 528.2C438.9 562.442 466.658 590.2 500.9 590.2Z" stroke="#493B3B" stroke-width="6" stroke-miterlimit="10" stroke-linecap="round" stroke-linejoin="round"/>
<path d="M537.438 534.13C540.712 513.96 527.014 494.954 506.843 491.68C486.672 488.407 467.666 502.105 464.393 522.276C461.119 542.447 474.817 561.452 494.988 564.726C515.159 567.999 534.165 554.301 537.438 534.13Z" fill="#4C3535"/>
<path d="M537.438 534.13C540.712 513.96 527.014 494.954 506.843 491.68C486.672 488.407 467.666 502.105 464.393 522.276C461.119 542.447 474.817 561.452 494.988 564.726C515.159 567.999 534.165 554.301 537.438 534.13Z" stroke="#493B3B" stroke-width="3" stroke-miterlimit="10" stroke-linecap="round" stroke-linejoin="round"/>
<path d="M524.112 531.968C526.192 519.157 517.492 507.085 504.68 505.006C491.869 502.927 479.798 511.627 477.719 524.438C475.639 537.25 484.34 549.321 497.151 551.4C509.962 553.479 522.033 544.779 524.112 531.968Z" fill="#3F2E2E"/>
<path d="M308.3 384.6H256V374.6C256 371.3 258.7 368.6 262 368.6H302.3C305.6 368.6 308.3 371.3 308.3 374.6V384.6Z" fill="#6A4949"/>
<path d="M308.3 384.6H256V374.6C256 371.3 258.7 368.6 262 368.6H302.3C305.6 368.6 308.3 371.3 308.3 374.6V384.6Z" stroke="#493B3B" stroke-width="6" stroke-miterlimit="10" stroke-linecap="round" stroke-linejoin="round"/>
<path d="M300.2 356.7H264.2V368.6H300.2V356.7Z" stroke="#493B3B" stroke-width="6" stroke-miterlimit="10" stroke-linecap="round" stroke-linejoin="round"/>
<path d="M300.2 356.7H264.2V368.6H300.2V356.7Z" fill="#493B3B"/>
<path d="M500.9 642C563.584 642 614.4 591.05 614.4 528.2C614.4 465.35 563.584 414.4 500.9 414.4C438.216 414.4 387.4 465.35 387.4 528.2C387.4 591.05 438.216 642 500.9 642Z" stroke="#493B3B" stroke-width="8" stroke-miterlimit="10" stroke-linecap="round" stroke-linejoin="round"/>
<path opacity="0.38" d="M500.9 504.7C487.9 504.7 477.4 515.2 477.4 528.2C477.4 528.3 477.4 528.3 477.4 528.4C480.5 525.8 485.1 524.4 491.2 524.9C497.3 525.4 498.4 527.3 505.2 529.3C511.2 531 518.9 530.4 524.4 527.7C524.1 514.9 513.7 504.7 500.9 504.7Z" fill="white"/>
<path d="M500.9 604.2C542.874 604.2 576.9 570.174 576.9 528.2C576.9 486.227 542.874 452.2 500.9 452.2C458.926 452.2 424.9 486.227 424.9 528.2C424.9 570.174 458.926 604.2 500.9 604.2Z" stroke="#493B3B" stroke-width="3" stroke-miterlimit="10" stroke-linecap="round" stroke-linejoin="round"/>
<path d="M500.9 619.2C551.158 619.2 591.9 578.458 591.9 528.2C591.9 477.942 551.158 437.2 500.9 437.2C450.642 437.2 409.9 477.942 409.9 528.2C409.9 578.458 450.642 619.2 500.9 619.2Z" stroke="#493B3B" stroke-width="8" stroke-miterlimit="10" stroke-linecap="round" stroke-linejoin="round"/>
<path d="M714.4 420.4H628.7C622.2 420.4 616.9 415.1 616.9 408.6V374.4C616.9 367.9 622.2 362.6 628.7 362.6H714.4C720.9 362.6 726.2 367.9 726.2 374.4V408.6C726.2 415.1 720.9 420.4 714.4 420.4Z" fill="#443636"/>
<path d="M714.4 420.4H628.7C622.2 420.4 616.9 415.1 616.9 408.6V374.4C616.9 367.9 622.2 362.6 628.7 362.6H714.4C720.9 362.6 726.2 367.9 726.2 374.4V408.6C726.2 415.1 720.9 420.4 714.4 420.4Z" stroke="#493B3B" stroke-width="4" stroke-miterlimit="10" stroke-linecap="round" stroke-linejoin="round"/>
<path d="M706.9 414.4H636.2C630.7 414.4 626.2 409.9 626.2 404.4V378.6C626.2 373.1 630.7 368.6 636.2 368.6H706.9C712.4 368.6 716.9 373.1 716.9 378.6V404.4C716.9 410 712.4 414.4 706.9 414.4Z" fill="#845B5B"/>
<path opacity="0.38" d="M689.6 414.4L716.8 377.2C716.1 372.4 712 368.6 706.9 368.6H703.7L670.3 414.4H689.6Z" fill="white"/>
<path opacity="0.38" d="M663 414.4L696.4 368.6H690.5L657.1 414.4H663Z" fill="white"/>
</svg>
