<svg width="1000" height="1000" viewBox="0 0 1000 1000" fill="none" xmlns="http://www.w3.org/2000/svg">
<path d="M1000 0H0V1000H1000V0Z" fill="white"/>
<path d="M415.5 822.5H422.8V845.1C422.8 850.1 425.5 852.7 430.2 852.7C434.9 852.7 437.6 850.1 437.6 845.1V822.5H445V845C445 854.6 438.1 859.3 430.1 859.3C422.1 859.3 415.5 854.6 415.5 845V822.5V822.5Z" fill="white"/>
<path d="M457.3 822.5H464.6V859H457.3V822.5Z" fill="white"/>
<path d="M489.5 809.5H496.7L482.6 868.4H475.4L489.5 809.5Z" fill="white"/>
<path d="M507.5 822.5H514.8V845.1C514.8 850.1 517.5 852.7 522.2 852.7C526.9 852.7 529.6 850.1 529.6 845.1V822.5H537V845C537 854.6 530.1 859.3 522.1 859.3C514.1 859.3 507.5 854.6 507.5 845V822.5V822.5Z" fill="white"/>
<path d="M563.2 846.7L556 859H547.7L559.2 840.6L547.6 822.5H556L563.9 834.7L571 822.5H579.3L567.9 840.8L579.5 858.9H571.1L563.2 846.7Z" fill="white"/>
<path d="M909.8 666.3H95.7C90.7 666.3 86.7 662.3 86.7 657.3C86.7 652.3 90.7 648.3 95.7 648.3H909.9C914.9 648.3 918.9 652.3 918.9 657.3C918.8 662.3 914.8 666.3 909.8 666.3Z" fill="#444E59"/>
<path d="M548.2 647.8H407.4V656.2H548.2V647.8Z" fill="#444E59"/>
<path d="M646 592.9H313.8C307.2 592.9 301.8 587.5 301.8 580.9V358.4C301.8 351.8 307.2 346.4 313.8 346.4H646C652.6 346.4 658 351.8 658 358.4V580.8C658 587.5 652.7 592.9 646 592.9Z" fill="#BBBFC2"/>
<path d="M636.887 550.68V368.979L324.287 368.979L324.287 550.68H636.887Z" fill="#28A8E0"/>
<path opacity="0.4" d="M646.8 592.9H594.7V498.1C594.7 490.5 600.8 484.4 608.4 484.4H646.8V592.9Z" fill="#848484"/>
<path opacity="0.4" d="M327.1 501.3H301.8V576C301.8 585.3 309.8 592.9 319.2 592.9H348.3V522.9C348.2 511.2 338.7 501.3 327.1 501.3Z" fill="#848484"/>
<path d="M647 592.9H314.2C307.6 592.9 302.2 587.5 302.2 580.9V358.4C302.2 351.8 307.6 346.4 314.2 346.4H647C653.6 346.4 659 351.8 659 358.4V580.8C659 587.5 653.6 592.9 647 592.9Z" stroke="#444E59" stroke-width="4" stroke-miterlimit="10" stroke-linecap="round" stroke-linejoin="round"/>
<path d="M636.485 550.677V368.977L324.785 368.977L324.785 550.677H636.485Z" stroke="#444E59" stroke-width="4" stroke-miterlimit="10" stroke-linecap="round" stroke-linejoin="round"/>
<path opacity="0.32" d="M575.9 541.9H404.1C400.2 541.9 397.1 538.7 397.1 534.9V412.3C397.1 408.4 400.3 405.3 404.1 405.3H575.9C579.8 405.3 582.9 408.5 582.9 412.3V534.8C582.9 538.7 579.8 541.9 575.9 541.9Z" fill="#848484"/>
<path d="M567.9 535.1H396.1C392.2 535.1 389.1 531.9 389.1 528.1V405.6C389.1 401.7 392.3 398.6 396.1 398.6H567.9C571.8 398.6 574.9 401.8 574.9 405.6V528.1C575 532 571.8 535.1 567.9 535.1Z" fill="#AFB1B2"/>
<path d="M567.9 535.1H396.1C392.2 535.1 389.1 531.9 389.1 528.1V405.6C389.1 401.7 392.3 398.6 396.1 398.6H567.9C571.8 398.6 574.9 401.8 574.9 405.6V528.1C575 532 571.8 535.1 567.9 535.1Z" stroke="#444E59" stroke-width="4" stroke-miterlimit="10" stroke-linecap="round" stroke-linejoin="round"/>
<path d="M522.5 647.8H438.7L449.1 592.9H512.1L522.5 647.8Z" fill="#AEAEAF"/>
<path opacity="0.32" d="M514.9 608.4L512.1 592.9H449.1L446.3 608.4H514.9Z" fill="#848484"/>
<path d="M522.5 647.8H438.7L449.1 592.9H512.1L522.5 647.8Z" stroke="#444E59" stroke-width="4" stroke-miterlimit="10" stroke-linecap="round" stroke-linejoin="round"/>
<path d="M548.2 647.8H407.4V656.2H548.2V647.8Z" stroke="#444E59" stroke-width="4" stroke-miterlimit="10" stroke-linecap="round" stroke-linejoin="round"/>
<path d="M480.1 573.9C483.524 573.9 486.3 571.124 486.3 567.7C486.3 564.276 483.524 561.5 480.1 561.5C476.676 561.5 473.9 564.276 473.9 567.7C473.9 571.124 476.676 573.9 480.1 573.9Z" fill="#444E59"/>
<path d="M553.8 522.5H382C378.1 522.5 375 519.3 375 515.5V392.9C375 389 378.2 385.9 382 385.9H553.8C557.7 385.9 560.8 389.1 560.8 392.9V515.4C560.9 519.3 557.7 522.5 553.8 522.5Z" fill="white"/>
<path d="M553.8 522.5H382C378.1 522.5 375 519.3 375 515.5V392.9C375 389 378.2 385.9 382 385.9H553.8C557.7 385.9 560.8 389.1 560.8 392.9V515.4C560.9 519.3 557.7 522.5 553.8 522.5Z" stroke="#444E59" stroke-width="4" stroke-miterlimit="10" stroke-linecap="round" stroke-linejoin="round"/>
<path d="M560.9 407H375V393.2C375 389.2 378.3 385.8 382.4 385.8H554C557.8 385.8 560.9 388.9 560.9 392.7V407Z" fill="#BBBFC2"/>
<path d="M560.9 407H375V393.2C375 389.2 378.3 385.8 382.4 385.8H554C557.8 385.8 560.9 388.9 560.9 392.7V407Z" stroke="#444E59" stroke-width="4" stroke-miterlimit="10" stroke-linecap="round" stroke-linejoin="round"/>
<path d="M392.9 399.8C394.723 399.8 396.2 398.322 396.2 396.5C396.2 394.677 394.723 393.2 392.9 393.2C391.078 393.2 389.6 394.677 389.6 396.5C389.6 398.322 391.078 399.8 392.9 399.8Z" fill="#444E59"/>
<path d="M403.8 399.8C405.623 399.8 407.1 398.322 407.1 396.5C407.1 394.677 405.623 393.2 403.8 393.2C401.978 393.2 400.5 394.677 400.5 396.5C400.5 398.322 401.978 399.8 403.8 399.8Z" fill="#444E59"/>
<path d="M414.6 399.8C416.423 399.8 417.9 398.322 417.9 396.5C417.9 394.677 416.423 393.2 414.6 393.2C412.778 393.2 411.3 394.677 411.3 396.5C411.3 398.322 412.778 399.8 414.6 399.8Z" fill="#444E59"/>
<path d="M543.4 443.6H391.1C390 443.6 389.1 442.7 389.1 441.6V420.3C389.1 419.2 390 418.3 391.1 418.3H543.4C544.5 418.3 545.4 419.2 545.4 420.3V441.6C545.4 442.7 544.5 443.6 543.4 443.6Z" fill="#6567C3"/>
<path opacity="0.2" d="M434.9 470.3H391C389.9 470.3 389 469.4 389 468.3V456.8C389 455.7 389.9 454.8 391 454.8H434.9C436 454.8 436.9 455.7 436.9 456.8V468.3C436.9 469.4 436.1 470.3 434.9 470.3Z" fill="#444E59"/>
<path opacity="0.2" d="M396.1 481.6H431.3" stroke="#444E59" stroke-width="4" stroke-miterlimit="10" stroke-linecap="round" stroke-linejoin="round"/>
<path opacity="0.2" d="M396.1 492.9H431.3" stroke="#444E59" stroke-width="4" stroke-miterlimit="10" stroke-linecap="round" stroke-linejoin="round"/>
<path opacity="0.2" d="M489.9 470.3H446C444.9 470.3 444 469.4 444 468.3V456.8C444 455.7 444.9 454.8 446 454.8H489.9C491 454.8 491.9 455.7 491.9 456.8V468.3C491.9 469.4 491 470.3 489.9 470.3Z" fill="#444E59"/>
<path opacity="0.2" d="M451 481.6H484.8" stroke="#444E59" stroke-width="4" stroke-miterlimit="10" stroke-linecap="round" stroke-linejoin="round"/>
<path opacity="0.2" d="M451 492.9H484.8" stroke="#444E59" stroke-width="4" stroke-miterlimit="10" stroke-linecap="round" stroke-linejoin="round"/>
<g opacity="0.2">
<path opacity="0.2" d="M544.8 494.3H500.9C499.8 494.3 498.9 493.4 498.9 492.3V456.9C498.9 455.8 499.8 454.9 500.9 454.9H544.8C545.9 454.9 546.8 455.8 546.8 456.9V492.3C546.8 493.4 545.9 494.3 544.8 494.3Z" fill="#444E59"/>
</g>
<g opacity="0.09">
<path opacity="0.09" d="M543.4 505.6H501.6C500 505.6 498.8 504.3 498.8 502.8C498.8 501.3 500.1 500 501.6 500H543.4C545 500 546.2 501.3 546.2 502.8C546.2 504.3 544.9 505.6 543.4 505.6Z" fill="#444E59"/>
</g>
<path d="M229.2 613.4H148.6C147.6 613.4 146.7 613.7 146 614.4L126.5 631.4C124.7 633 124.7 635.8 126.5 637.3L146 654.6C146.7 655.2 147.6 655.8 148.6 655.8H229.2C233.8 655.8 237.6 651.6 237.6 647V621.5C237.5 617.1 233.8 613.4 229.2 613.4ZM146.4 639.3C143.7 639.3 141.4 637.1 141.4 634.3C141.4 631.5 143.6 629.3 146.4 629.3C149.2 629.3 151.4 631.5 151.4 634.3C151.4 637.1 149.2 639.3 146.4 639.3Z" fill="white"/>
<path d="M190.6 613.4H167.1V655.9H190.6V613.4Z" fill="#F09F54"/>
<path d="M214.1 613.4H190.6V655.9H214.1V613.4Z" fill="#ED8B3B"/>
<path d="M227.1 655.9H214.1V613.4H227.5C233 613.4 237.6 617.9 237.6 623.5V645.5C237.5 651.2 232.8 655.9 227.1 655.9Z" fill="#FF6C37"/>
<path opacity="0.4" d="M231.4 615.5C231 615.4 230.6 615.4 230.2 615.4H149.6C148.6 615.4 147.7 615.7 147 616.4L127.5 633.4C125.7 635 125.7 637.8 127.5 639.3L139.7 650L152.9 653.3C153.5 653.5 154.2 653.5 154.9 653.5C156.2 653.5 157.4 653.2 158.6 652.6L230.4 616C230.7 615.9 231.1 615.7 231.4 615.5ZM147.4 641.3C144.7 641.3 142.4 639.1 142.4 636.3C142.4 633.5 144.6 631.3 147.4 631.3C150.2 631.3 152.4 633.5 152.4 636.3C152.4 639.1 150.2 641.3 147.4 641.3Z" fill="#848484"/>
<path d="M229.2 613.4H148.6C147.6 613.4 146.7 613.7 146 614.4L126.5 631.4C124.7 633 124.7 635.8 126.5 637.3L146 654.6C146.7 655.2 147.6 655.8 148.6 655.8H229.2C233.8 655.8 237.6 651.6 237.6 647V621.5C237.5 617.1 233.8 613.4 229.2 613.4ZM146.4 639.3C143.7 639.3 141.4 637.1 141.4 634.3C141.4 631.5 143.6 629.3 146.4 629.3C149.2 629.3 151.4 631.5 151.4 634.3C151.4 637.1 149.2 639.3 146.4 639.3Z" stroke="#444E59" stroke-width="4" stroke-miterlimit="10" stroke-linecap="round" stroke-linejoin="round"/>
<path d="M190.6 613.4H167.1V655.9H190.6V613.4Z" stroke="#444E59" stroke-width="4" stroke-miterlimit="10" stroke-linecap="round" stroke-linejoin="round"/>
<path d="M214.1 613.4H190.6V655.9H214.1V613.4Z" stroke="#444E59" stroke-width="4" stroke-miterlimit="10" stroke-linecap="round" stroke-linejoin="round"/>
<path d="M227.1 655.9H214.1V613.4H227.5C233 613.4 237.6 617.9 237.6 623.5V645.5C237.5 651.2 232.8 655.9 227.1 655.9Z" stroke="#444E59" stroke-width="4" stroke-miterlimit="10" stroke-linecap="round" stroke-linejoin="round"/>
<path d="M208.4 573L136.6 609.6C135.7 610 135.1 610.8 134.7 611.7L125.1 635.7C124.2 637.9 125.5 640.4 127.8 641L152.9 647.4C153.8 647.6 154.8 647.5 155.7 647.1L227.5 610.5C231.6 608.4 233.2 603.4 231.1 599.4L219.5 576.7C217.4 572.5 212.4 570.9 208.4 573Z" fill="white"/>
<path d="M194.876 579.85L173.942 590.531L193.031 627.944L213.965 617.264L194.876 579.85Z" fill="#8D91DB"/>
<path d="M208.4 573L136.6 609.6C135.7 610 135.1 610.8 134.7 611.7L125.1 635.7C124.2 637.9 125.5 640.4 127.8 641L152.9 647.4C153.8 647.6 154.8 647.5 155.7 647.1L227.5 610.5C231.6 608.4 233.2 603.4 231.1 599.4L219.5 576.7C217.4 572.5 212.4 570.9 208.4 573Z" stroke="#444E59" stroke-width="4" stroke-miterlimit="10" stroke-linecap="round" stroke-linejoin="round"/>
<path d="M144.2 635.1C147.403 635.1 150 632.503 150 629.3C150 626.097 147.403 623.5 144.2 623.5C140.997 623.5 138.4 626.097 138.4 629.3C138.4 632.503 140.997 635.1 144.2 635.1Z" fill="#444E59"/>
<path d="M173.897 590.585L152.963 601.266L172.052 638.679L192.986 627.998L173.897 590.585Z" fill="#BECCD5" stroke="#444E59" stroke-width="4" stroke-miterlimit="10" stroke-linecap="round" stroke-linejoin="round"/>
<path d="M173.897 590.585L152.963 601.266L172.052 638.679L192.986 627.998L173.897 590.585Z" stroke="#444E59" stroke-width="4" stroke-miterlimit="10" stroke-linecap="round" stroke-linejoin="round"/>
<path d="M194.876 579.85L173.942 590.531L193.031 627.944L213.965 617.264L194.876 579.85Z" stroke="#444E59" stroke-width="4" stroke-miterlimit="10" stroke-linecap="round" stroke-linejoin="round"/>
<path d="M225.9 611.2L213.9 617.3L194.8 579.9L206.8 573.8C211.7 571.3 217.7 573.2 220.3 578.2L230.3 597.8C232.8 602.7 230.8 608.7 225.9 611.2Z" fill="#6567C3"/>
<path d="M225.9 611.2L213.9 617.3L194.8 579.9L206.8 573.8C211.7 571.3 217.7 573.2 220.3 578.2L230.3 597.8C232.8 602.7 230.8 608.7 225.9 611.2Z" stroke="#444E59" stroke-width="4" stroke-miterlimit="10" stroke-linecap="round" stroke-linejoin="round"/>
<path d="M327 656.2H259.7C254.2 656.2 249.7 651.7 249.7 646.2V511.3C249.7 505.8 254.2 501.3 259.7 501.3H327C332.5 501.3 337 505.8 337 511.3V646.2C337 651.8 332.5 656.2 327 656.2Z" fill="white"/>
<path d="M338.4 547.8H249.7V511.1C249.7 505.7 254.1 501.3 259.5 501.3H328C333.7 501.3 338.3 506 338.3 511.6V547.8H338.4Z" fill="#6567C3"/>
<path d="M327 656.2H259.7C254.2 656.2 249.7 651.7 249.7 646.2V511.3C249.7 505.8 254.2 501.3 259.7 501.3H327C332.5 501.3 337 505.8 337 511.3V646.2C337 651.8 332.5 656.2 327 656.2Z" stroke="#444E59" stroke-width="4" stroke-miterlimit="10" stroke-linecap="round" stroke-linejoin="round"/>
<path d="M327.1 656.2H260C254.3 656.2 249.6 651.5 249.6 645.8V626.6H337V646.3C337 651.8 332.5 656.2 327.1 656.2Z" fill="#BBBFC2"/>
<path d="M327.3 656.2H260C254.3 656.2 249.6 651.5 249.6 645.8V626.6H337V646.5C337 651.9 332.6 656.2 327.3 656.2Z" stroke="#444E59" stroke-width="4" stroke-miterlimit="10" stroke-linecap="round" stroke-linejoin="round"/>
<path d="M294 645.8C296.761 645.8 299 643.561 299 640.8C299 638.038 296.761 635.8 294 635.8C291.239 635.8 289 638.038 289 640.8C289 643.561 291.239 645.8 294 645.8Z" fill="#444E59"/>
<path opacity="0.3" d="M269.4 563.3H318.7" stroke="#444E59" stroke-width="4" stroke-miterlimit="10" stroke-linecap="round" stroke-linejoin="round"/>
<path opacity="0.3" d="M279.2 578.8H310.2" stroke="#444E59" stroke-width="4" stroke-miterlimit="10" stroke-linecap="round" stroke-linejoin="round"/>
<path opacity="0.3" d="M269.4 592.9H318.7" stroke="#444E59" stroke-width="4" stroke-miterlimit="10" stroke-linecap="round" stroke-linejoin="round"/>
<path opacity="0.62" d="M294 539.3C300.186 539.3 305.2 534.285 305.2 528.1C305.2 521.914 300.186 516.9 294 516.9C287.814 516.9 282.8 521.914 282.8 528.1C282.8 534.285 287.814 539.3 294 539.3Z" fill="white"/>
<path d="M310.2 608.4C310.2 611.5 307.7 614 304.6 614H283.5C280.4 614 277.9 611.5 277.9 608.4C277.9 605.3 280.4 602.8 283.5 602.8H304.6C307.7 602.7 310.2 605.2 310.2 608.4Z" fill="#ED8B3B"/>
<path d="M848.2 637.9H605.9V492.3C605.9 488 609.4 484.5 613.7 484.5H840.5C844.7 484.5 848.1 487.9 848.1 492.1V637.9H848.2Z" fill="#BBBFC2"/>
<path d="M848.8 638.2H606.6V492.2C606.6 487.8 610.2 484.2 614.6 484.2H840.8C845.2 484.2 848.8 487.8 848.8 492.2V638.2Z" stroke="#444E59" stroke-width="4" stroke-miterlimit="10" stroke-linecap="round" stroke-linejoin="round"/>
<path opacity="0.71" d="M835.527 625.326V497.126L620.027 497.126V625.326H835.527Z" fill="#5D5D5D"/>
<path opacity="0.32" d="M672.7 600.9H654.1C653 600.9 652.1 600 652.1 598.9V535.2C652.1 534.1 653 533.2 654.1 533.2H672.7C673.8 533.2 674.7 534.1 674.7 535.2V599C674.7 600 673.8 600.9 672.7 600.9Z" fill="#848484"/>
<path opacity="0.32" d="M807 613.8H699.6C697.4 613.8 695.6 612 695.6 609.8V527.7C695.6 525.5 697.4 523.7 699.6 523.7H807C809.2 523.7 811 525.5 811 527.7V609.8C811 612 809.3 613.8 807 613.8Z" fill="#848484"/>
<path d="M835.337 624.721V497.621L620.037 497.621V624.721H835.337Z" stroke="#444E59" stroke-width="4" stroke-miterlimit="10" stroke-linecap="round" stroke-linejoin="round"/>
<path d="M875.2 638.2H580.1V647.6C580.1 652 583.7 655.6 588.1 655.6H867.2C871.6 655.6 875.2 652 875.2 647.6V638.2Z" fill="white"/>
<path opacity="0.8" d="M591.4 656.2H864C869.5 656.2 874 652 875 646.3H580.3C581.3 652 585.9 656.2 591.4 656.2Z" fill="#BBBFC2"/>
<path d="M875.2 638.2H580.1V647.6C580.1 652 583.7 655.6 588.1 655.6H867.2C871.6 655.6 875.2 652 875.2 647.6V638.2Z" stroke="#444E59" stroke-width="4" stroke-miterlimit="10" stroke-linecap="round" stroke-linejoin="round"/>
<path d="M669.3 528.1H646.8V550.6H669.3V528.1Z" fill="#F09F54"/>
<path d="M669.7 528.3H647.2V550.8H669.7V528.3Z" stroke="#444E59" stroke-width="4" stroke-miterlimit="10" stroke-linecap="round" stroke-linejoin="round"/>
<path d="M669.7 528.3H647.2V550.8H669.7V528.3Z" stroke="#444E59" stroke-width="4" stroke-miterlimit="10" stroke-linecap="round" stroke-linejoin="round"/>
<path d="M669.3 550.6H646.8V573.1H669.3V550.6Z" fill="#8D91DB"/>
<path d="M669.7 550.9H647.2V573.4H669.7V550.9Z" stroke="#444E59" stroke-width="4" stroke-miterlimit="10" stroke-linecap="round" stroke-linejoin="round"/>
<path d="M669.3 573.1H646.8V595.6H669.3V573.1Z" fill="#6567C3"/>
<path d="M669.7 573.4H647.2V595.9H669.7V573.4Z" stroke="#444E59" stroke-width="4" stroke-miterlimit="10" stroke-linecap="round" stroke-linejoin="round"/>
<path d="M800.5 606.9H693C690.8 606.9 689 605.1 689 602.9V520.8C689 518.6 690.8 516.8 693 516.8H800.5C802.7 516.8 804.5 518.6 804.5 520.8V602.9C804.5 605.2 802.7 606.9 800.5 606.9Z" fill="white"/>
<path d="M800.5 606.9H693C690.8 606.9 689 605.1 689 602.9V520.8C689 518.6 690.8 516.8 693 516.8H800.5C802.7 516.8 804.5 518.6 804.5 520.8V602.9C804.5 605.2 802.7 606.9 800.5 606.9Z" stroke="#444E59" stroke-width="4" stroke-miterlimit="10" stroke-linecap="round" stroke-linejoin="round"/>
<g opacity="0.3">
<g opacity="0.3">
<path opacity="0.3" d="M770.7 583.2V584.7H769.2" stroke="#444E59" stroke-width="2" stroke-linejoin="round"/>
<path opacity="0.3" d="M767.3 584.7H725.4" stroke="#444E59" stroke-width="2" stroke-linejoin="round" stroke-dasharray="2.86 2.86"/>
<path opacity="0.3" d="M724.4 584.7H722.9V583.2" stroke="#444E59" stroke-width="2" stroke-linejoin="round"/>
<path opacity="0.3" d="M722.9 581.1V542.1" stroke="#444E59" stroke-width="2" stroke-linejoin="round" stroke-dasharray="3 3"/>
<path opacity="0.3" d="M722.9 541.1V539.6H724.4" stroke="#444E59" stroke-width="2" stroke-linejoin="round"/>
<path opacity="0.3" d="M726.3 539.6H768.2" stroke="#444E59" stroke-width="2" stroke-linejoin="round" stroke-dasharray="2.86 2.86"/>
<path opacity="0.3" d="M769.2 539.6H770.7V541.1" stroke="#444E59" stroke-width="2" stroke-linejoin="round"/>
<path opacity="0.3" d="M770.7 543.1V582.2" stroke="#444E59" stroke-width="2" stroke-linejoin="round" stroke-dasharray="3 3"/>
</g>
</g>
<path d="M726.7 536.1H719.6V543.2H726.7V536.1Z" fill="white"/>
<path d="M726.3 535.8H719.3V542.8H726.3V535.8Z" stroke="#444E59" stroke-miterlimit="10" stroke-linejoin="round"/>
<path d="M726.7 581.101H719.6V588.201H726.7V581.101Z" fill="white"/>
<path d="M726.3 580.9H719.3V587.9H726.3V580.9Z" stroke="#444E59" stroke-miterlimit="10" stroke-linejoin="round"/>
<path d="M774.3 536.1H767.2V543.2H774.3V536.1Z" fill="white"/>
<path d="M774.2 535.8H767.2V542.8H774.2V535.8Z" stroke="#444E59" stroke-miterlimit="10" stroke-linejoin="round"/>
<path d="M774.3 581.101H767.2V588.201H774.3V581.101Z" fill="white"/>
<path d="M774.2 580.9H767.2V587.9H774.2V580.9Z" stroke="#444E59" stroke-miterlimit="10" stroke-linejoin="round"/>
<path d="M658.5 562.5L665.6 577.7L672.5 581.3L677.3 576.5L673.8 569.5L658.5 562.5Z" fill="white"/>
<path d="M658.5 562.5L665.6 577.7L672.5 581.3L677.3 576.5L673.8 569.5L658.5 562.5Z" stroke="#444E59" stroke-miterlimit="10" stroke-linejoin="round"/>
<path d="M667.5 573C668.549 573 669.4 572.149 669.4 571.1C669.4 570.051 668.549 569.2 667.5 569.2C666.451 569.2 665.6 570.051 665.6 571.1C665.6 572.149 666.451 573 667.5 573Z" fill="#444E59"/>
<path d="M658.5 562.5L666.4 570.4" stroke="#444E59" stroke-miterlimit="10" stroke-linecap="round" stroke-linejoin="round"/>
<path d="M677.33 576.421L672.522 581.229L675.986 584.694L680.795 579.886L677.33 576.421Z" fill="white"/>
<path d="M677.33 576.421L672.522 581.229L675.986 584.694L680.795 579.886L677.33 576.421Z" stroke="#444E59" stroke-miterlimit="10" stroke-linejoin="round"/>
</svg>
