<svg width="1000" height="1000" viewBox="0 0 1000 1000" fill="none" xmlns="http://www.w3.org/2000/svg">
<path d="M1000 0H0V1000H1000V0Z" fill="white"/>
<path opacity="0.28" d="M837.8 666.3H162.2C157.2 666.3 153.2 662.3 153.2 657.3C153.2 652.3 157.2 648.3 162.2 648.3H837.9C842.9 648.3 846.9 652.3 846.9 657.3C846.8 662.3 842.8 666.3 837.8 666.3Z" fill="#848484"/>
<path d="M808.5 573.9C808.5 536.7 780.3 506.1 743.8 502.6V494.2H721.9V654.9H743.8V645.2C780.2 641.7 808.5 611.1 808.5 573.9ZM743.7 622.1V525.8C767.1 529.2 785.5 549.5 785.5 574C785.5 598.4 767.1 618.7 743.7 622.1Z" fill="#F09F54"/>
<path opacity="0.29" d="M743.7 502.6V494.2H721.8V654.9H743.7V645.2C780.2 641.7 808.4 611.2 808.4 573.9C808.5 536.7 780.2 506.1 743.7 502.6ZM743.7 637.8V646.1H723.2V501.5H743.7V510C775.8 513.1 801.7 540.5 801.7 573.9C801.8 607.3 775.9 634.7 743.7 637.8Z" fill="#F09F54"/>
<path d="M808.5 573.9C808.5 536.7 780.3 506.1 743.8 502.6V494.2H721.9V654.9H743.8V645.2C780.2 641.7 808.5 611.1 808.5 573.9ZM743.7 622.1V525.8C767.1 529.2 785.5 549.5 785.5 574C785.5 598.4 767.1 618.7 743.7 622.1Z" stroke="#444E59" stroke-width="4" stroke-miterlimit="10" stroke-linecap="round" stroke-linejoin="round"/>
<path d="M730.6 638.8H721.8" stroke="#444E59" stroke-width="3" stroke-miterlimit="10" stroke-linecap="round" stroke-linejoin="round"/>
<path d="M730.6 622.8H721.8" stroke="#444E59" stroke-width="3" stroke-miterlimit="10" stroke-linecap="round" stroke-linejoin="round"/>
<path d="M730.6 606.7H721.8" stroke="#444E59" stroke-width="3" stroke-miterlimit="10" stroke-linecap="round" stroke-linejoin="round"/>
<path d="M730.6 590.6H721.8" stroke="#444E59" stroke-width="3" stroke-miterlimit="10" stroke-linecap="round" stroke-linejoin="round"/>
<path d="M730.6 574.6H721.8" stroke="#444E59" stroke-width="3" stroke-miterlimit="10" stroke-linecap="round" stroke-linejoin="round"/>
<path d="M730.6 558.5H721.8" stroke="#444E59" stroke-width="3" stroke-miterlimit="10" stroke-linecap="round" stroke-linejoin="round"/>
<path d="M730.6 542.4H721.8" stroke="#444E59" stroke-width="3" stroke-miterlimit="10" stroke-linecap="round" stroke-linejoin="round"/>
<path d="M730.6 526.3H721.8" stroke="#444E59" stroke-width="3" stroke-miterlimit="10" stroke-linecap="round" stroke-linejoin="round"/>
<path d="M730.6 510.3H721.8" stroke="#444E59" stroke-width="3" stroke-miterlimit="10" stroke-linecap="round" stroke-linejoin="round"/>
<path d="M706.4 412.9H673.3V654.5H706.4V412.9Z" fill="#F09F54"/>
<path d="M706.4 412.9H673.3V654.5H706.4V412.9Z" fill="#F09F54"/>
<path opacity="0.29" d="M706.4 412.9H692V654.5H706.4V412.9Z" fill="#F09F54"/>
<path d="M706.4 412.9H673.3V654.5H706.4V412.9Z" stroke="#444E59" stroke-width="4" stroke-miterlimit="10" stroke-linecap="round" stroke-linejoin="round"/>
<path d="M684.8 630.101H673.3" stroke="#444E59" stroke-width="3" stroke-miterlimit="10" stroke-linecap="round" stroke-linejoin="round"/>
<path d="M680.4 641.601H673.3" stroke="#444E59" stroke-width="3" stroke-miterlimit="10" stroke-linecap="round" stroke-linejoin="round"/>
<path d="M684.8 607.101H673.3" stroke="#444E59" stroke-width="3" stroke-miterlimit="10" stroke-linecap="round" stroke-linejoin="round"/>
<path d="M680.4 618.601H673.3" stroke="#444E59" stroke-width="3" stroke-miterlimit="10" stroke-linecap="round" stroke-linejoin="round"/>
<path d="M684.8 584.101H673.3" stroke="#444E59" stroke-width="3" stroke-miterlimit="10" stroke-linecap="round" stroke-linejoin="round"/>
<path d="M680.4 595.601H673.3" stroke="#444E59" stroke-width="3" stroke-miterlimit="10" stroke-linecap="round" stroke-linejoin="round"/>
<path d="M684.8 561H673.3" stroke="#444E59" stroke-width="3" stroke-miterlimit="10" stroke-linecap="round" stroke-linejoin="round"/>
<path d="M680.4 572.5H673.3" stroke="#444E59" stroke-width="3" stroke-miterlimit="10" stroke-linecap="round" stroke-linejoin="round"/>
<path d="M684.8 538H673.3" stroke="#444E59" stroke-width="3" stroke-miterlimit="10" stroke-linecap="round" stroke-linejoin="round"/>
<path d="M680.4 549.5H673.3" stroke="#444E59" stroke-width="3" stroke-miterlimit="10" stroke-linecap="round" stroke-linejoin="round"/>
<path d="M684.8 515H673.3" stroke="#444E59" stroke-width="3" stroke-miterlimit="10" stroke-linecap="round" stroke-linejoin="round"/>
<path d="M680.4 526.5H673.3" stroke="#444E59" stroke-width="3" stroke-miterlimit="10" stroke-linecap="round" stroke-linejoin="round"/>
<path d="M684.8 492H673.3" stroke="#444E59" stroke-width="3" stroke-miterlimit="10" stroke-linecap="round" stroke-linejoin="round"/>
<path d="M680.4 503.5H673.3" stroke="#444E59" stroke-width="3" stroke-miterlimit="10" stroke-linecap="round" stroke-linejoin="round"/>
<path d="M684.8 469H673.3" stroke="#444E59" stroke-width="3" stroke-miterlimit="10" stroke-linecap="round" stroke-linejoin="round"/>
<path d="M680.4 480.5H673.3" stroke="#444E59" stroke-width="3" stroke-miterlimit="10" stroke-linecap="round" stroke-linejoin="round"/>
<path d="M684.8 446H673.3" stroke="#444E59" stroke-width="3" stroke-miterlimit="10" stroke-linecap="round" stroke-linejoin="round"/>
<path d="M680.4 457.5H673.3" stroke="#444E59" stroke-width="3" stroke-miterlimit="10" stroke-linecap="round" stroke-linejoin="round"/>
<path d="M684.8 423H673.3" stroke="#444E59" stroke-width="3" stroke-miterlimit="10" stroke-linecap="round" stroke-linejoin="round"/>
<path d="M680.4 434.5H673.3" stroke="#444E59" stroke-width="3" stroke-miterlimit="10" stroke-linecap="round" stroke-linejoin="round"/>
<path d="M625 471.3H612.1V505.4H625V471.3Z" fill="#848484"/>
<path opacity="0.25" d="M616.9 471.3H612.1V505.4H616.9V471.3Z" fill="#848484"/>
<path d="M625 471.3H612.1V505.4H625V471.3Z" stroke="#444E59" stroke-width="4" stroke-miterlimit="10" stroke-linecap="round" stroke-linejoin="round"/>
<path d="M621.5 505.5H615.6V522H621.5V505.5Z" fill="white"/>
<path d="M621.5 505.5H615.6V522H621.5V505.5Z" stroke="#444E59" stroke-width="4" stroke-miterlimit="10" stroke-linecap="round" stroke-linejoin="round"/>
<path d="M608.6 536.7L578.6 654.4L624.2 538.3L608.6 536.7Z" fill="white"/>
<path d="M608.6 536.7L578.6 654.4L624.2 538.3L608.6 536.7Z" stroke="#444E59" stroke-width="4" stroke-miterlimit="10" stroke-linecap="round" stroke-linejoin="round"/>
<path d="M628.6 536.7L658.6 654.4L613.1 538.3L628.6 536.7Z" fill="white"/>
<path d="M628.6 536.7L658.6 654.4L613.1 538.3L628.6 536.7Z" stroke="#444E59" stroke-width="4" stroke-miterlimit="10" stroke-linecap="round" stroke-linejoin="round"/>
<path d="M618.6 559.8C629.646 559.8 638.6 550.846 638.6 539.8C638.6 528.755 629.646 519.8 618.6 519.8C607.554 519.8 598.6 528.755 598.6 539.8C598.6 550.846 607.554 559.8 618.6 559.8Z" fill="#71A850"/>
<path opacity="0.4" d="M604.2 539.8C604.2 529.7 611.7 521.4 621.4 520C620.5 519.9 619.6 519.8 618.6 519.8C607.6 519.8 598.6 528.8 598.6 539.8C598.6 550.8 607.6 559.8 618.6 559.8C619.5 559.8 620.5 559.7 621.4 559.6C611.7 558.2 604.2 549.9 604.2 539.8Z" fill="#71A850"/>
<path d="M618.6 559.8C629.646 559.8 638.6 550.846 638.6 539.8C638.6 528.755 629.646 519.8 618.6 519.8C607.554 519.8 598.6 528.755 598.6 539.8C598.6 550.846 607.554 559.8 618.6 559.8Z" stroke="#444E59" stroke-width="4" stroke-miterlimit="10" stroke-linecap="round" stroke-linejoin="round"/>
<path d="M618.6 546.6C622.356 546.6 625.4 543.556 625.4 539.8C625.4 536.045 622.356 533 618.6 533C614.844 533 611.8 536.045 611.8 539.8C611.8 543.556 614.844 546.6 618.6 546.6Z" fill="#444E59"/>
<path d="M618.6 546.6C622.356 546.6 625.4 543.556 625.4 539.8C625.4 536.045 622.356 533 618.6 533C614.844 533 611.8 536.045 611.8 539.8C611.8 543.556 614.844 546.6 618.6 546.6Z" stroke="#444E59" stroke-width="4" stroke-miterlimit="10" stroke-linecap="round" stroke-linejoin="round"/>
<path d="M546.4 654.2H414.4C406.7 654.2 400.4 647.9 400.4 640.2V368.2C400.4 360.5 406.7 354.2 414.4 354.2H546.4C554.1 354.2 560.4 360.5 560.4 368.2V640.2C560.4 647.9 554.1 654.2 546.4 654.2Z" fill="#848484"/>
<path opacity="0.28" d="M546.4 354.2H538C545.7 354.2 552 360.5 552 368.2V640.2C552 647.9 545.7 654.2 538 654.2H546.5C554.2 654.2 560.5 647.9 560.5 640.2V368.2C560.4 360.4 554.1 354.2 546.4 354.2Z" fill="#848484"/>
<path opacity="0.48" d="M408.7 640.2V368.2C408.7 360.5 415 354.2 422.7 354.2H414.4C406.7 354.2 400.4 360.5 400.4 368.2V640.2C400.4 647.9 406.7 654.2 414.4 654.2H422.7C415 654.2 408.7 647.9 408.7 640.2Z" fill="#848484"/>
<path d="M546.4 654.2H414.4C406.7 654.2 400.4 647.9 400.4 640.2V368.2C400.4 360.5 406.7 354.2 414.4 354.2H546.4C554.1 354.2 560.4 360.5 560.4 368.2V640.2C560.4 647.9 554.1 654.2 546.4 654.2Z" stroke="#444E59" stroke-width="4" stroke-miterlimit="10" stroke-linecap="round" stroke-linejoin="round"/>
<path d="M560.419 615.688V391.688L400.419 391.688V615.688H560.419Z" fill="#E9FBFF"/>
<path d="M559.6 463.9H547.1C540.3 463.9 534.8 458.4 534.8 451.6V421.1C534.8 414.3 540.3 408.8 547.1 408.8H559.6V463.9Z" fill="#C9C9C9"/>
<path d="M409.6 587.5H400.4V490.2H409.6C416.5 490.2 422.1 495.8 422.1 502.7V575C422 581.9 416.5 587.5 409.6 587.5Z" fill="#C9C9C9"/>
<path d="M560.419 615.688V391.688L400.419 391.688V615.688H560.419Z" stroke="#444E59" stroke-width="4" stroke-miterlimit="10" stroke-linecap="round" stroke-linejoin="round"/>
<path d="M502.4 374.2H509.4" stroke="#444E59" stroke-width="5" stroke-miterlimit="10" stroke-linecap="round" stroke-linejoin="round"/>
<path d="M451.4 374.2H491.4" stroke="#444E59" stroke-width="5" stroke-miterlimit="10" stroke-linecap="round" stroke-linejoin="round"/>
<path opacity="0.29" d="M480.4 643.6C486.475 643.6 491.4 638.675 491.4 632.6C491.4 626.525 486.475 621.6 480.4 621.6C474.325 621.6 469.4 626.525 469.4 632.6C469.4 638.675 474.325 643.6 480.4 643.6Z" fill="#848484"/>
<path d="M480.4 641C485.039 641 488.8 637.239 488.8 632.6C488.8 627.961 485.039 624.2 480.4 624.2C475.761 624.2 472 627.961 472 632.6C472 637.239 475.761 641 480.4 641Z" fill="#444E59"/>
<g opacity="0.3">
<g opacity="0.3">
<g opacity="0.3">
<path opacity="0.3" d="M443.9 588.9H427.9C423.5 588.9 419.9 585.3 419.9 580.9V564.9C419.9 560.5 423.5 556.9 427.9 556.9H443.9C448.3 556.9 451.9 560.5 451.9 564.9V580.9C451.9 585.3 448.3 588.9 443.9 588.9Z" stroke="#444E59" stroke-width="2" stroke-linecap="round" stroke-linejoin="round" stroke-dasharray="4.08 4.08"/>
</g>
<g opacity="0.3">
<path opacity="0.3" d="M532.4 588.9H516.4C512 588.9 508.4 585.3 508.4 580.9V564.9C508.4 560.5 512 556.9 516.4 556.9H532.4C536.8 556.9 540.4 560.5 540.4 564.9V580.9C540.4 585.3 536.8 588.9 532.4 588.9Z" stroke="#444E59" stroke-width="2" stroke-linecap="round" stroke-linejoin="round" stroke-dasharray="4.08 4.08"/>
</g>
<g opacity="0.3">
<path opacity="0.3" d="M488.4 588.9H472.4C468 588.9 464.4 585.3 464.4 580.9V564.9C464.4 560.5 468 556.9 472.4 556.9H488.4C492.8 556.9 496.4 560.5 496.4 564.9V580.9C496.4 585.3 492.8 588.9 488.4 588.9Z" stroke="#444E59" stroke-width="2" stroke-linecap="round" stroke-linejoin="round" stroke-dasharray="4.08 4.08"/>
</g>
</g>
<g opacity="0.3">
<g opacity="0.3">
<path opacity="0.3" d="M443.9 540.9H427.9C423.5 540.9 419.9 537.3 419.9 532.9V516.9C419.9 512.5 423.5 508.9 427.9 508.9H443.9C448.3 508.9 451.9 512.5 451.9 516.9V532.9C451.9 537.3 448.3 540.9 443.9 540.9Z" stroke="#444E59" stroke-width="2" stroke-linecap="round" stroke-linejoin="round" stroke-dasharray="4.08 4.08"/>
</g>
<g opacity="0.3">
<path opacity="0.3" d="M532.4 540.9H516.4C512 540.9 508.4 537.3 508.4 532.9V516.9C508.4 512.5 512 508.9 516.4 508.9H532.4C536.8 508.9 540.4 512.5 540.4 516.9V532.9C540.4 537.3 536.8 540.9 532.4 540.9Z" stroke="#444E59" stroke-width="2" stroke-linecap="round" stroke-linejoin="round" stroke-dasharray="4.08 4.08"/>
</g>
<g opacity="0.3">
<path opacity="0.3" d="M488.4 540.9H472.4C468 540.9 464.4 537.3 464.4 532.9V516.9C464.4 512.5 468 508.9 472.4 508.9H488.4C492.8 508.9 496.4 512.5 496.4 516.9V532.9C496.4 537.3 492.8 540.9 488.4 540.9Z" stroke="#444E59" stroke-width="2" stroke-linecap="round" stroke-linejoin="round" stroke-dasharray="4.08 4.08"/>
</g>
</g>
<g opacity="0.3">
<g opacity="0.3">
<path opacity="0.3" d="M443.9 492.9H427.9C423.5 492.9 419.9 489.3 419.9 484.9V468.9C419.9 464.5 423.5 460.9 427.9 460.9H443.9C448.3 460.9 451.9 464.5 451.9 468.9V484.9C451.9 489.3 448.3 492.9 443.9 492.9Z" stroke="#444E59" stroke-width="2" stroke-linecap="round" stroke-linejoin="round" stroke-dasharray="4.08 4.08"/>
</g>
<g opacity="0.3">
<path opacity="0.3" d="M532.4 492.9H516.4C512 492.9 508.4 489.3 508.4 484.9V468.9C508.4 464.5 512 460.9 516.4 460.9H532.4C536.8 460.9 540.4 464.5 540.4 468.9V484.9C540.4 489.3 536.8 492.9 532.4 492.9Z" stroke="#444E59" stroke-width="2" stroke-linecap="round" stroke-linejoin="round" stroke-dasharray="4.08 4.08"/>
</g>
<g opacity="0.3">
<path opacity="0.3" d="M488.4 492.9H472.4C468 492.9 464.4 489.3 464.4 484.9V468.9C464.4 464.5 468 460.9 472.4 460.9H488.4C492.8 460.9 496.4 464.5 496.4 468.9V484.9C496.4 489.3 492.8 492.9 488.4 492.9Z" stroke="#444E59" stroke-width="2" stroke-linecap="round" stroke-linejoin="round" stroke-dasharray="4.08 4.08"/>
</g>
</g>
<g opacity="0.3">
<g opacity="0.3">
<path opacity="0.3" d="M443.9 444.9H427.9C423.5 444.9 419.9 441.3 419.9 436.9V420.9C419.9 416.5 423.5 412.9 427.9 412.9H443.9C448.3 412.9 451.9 416.5 451.9 420.9V436.9C451.9 441.3 448.3 444.9 443.9 444.9Z" stroke="#444E59" stroke-width="2" stroke-linecap="round" stroke-linejoin="round" stroke-dasharray="4.08 4.08"/>
</g>
<g opacity="0.3">
<path opacity="0.3" d="M532.4 444.9H516.4C512 444.9 508.4 441.3 508.4 436.9V420.9C508.4 416.5 512 412.9 516.4 412.9H532.4C536.8 412.9 540.4 416.5 540.4 420.9V436.9C540.4 441.3 536.8 444.9 532.4 444.9Z" stroke="#444E59" stroke-width="2" stroke-linecap="round" stroke-linejoin="round" stroke-dasharray="4.08 4.08"/>
</g>
<g opacity="0.3">
<path opacity="0.3" d="M488.4 444.9H472.4C468 444.9 464.4 441.3 464.4 436.9V420.9C464.4 416.5 468 412.9 472.4 412.9H488.4C492.8 412.9 496.4 416.5 496.4 420.9V436.9C496.4 441.3 492.8 444.9 488.4 444.9Z" stroke="#444E59" stroke-width="2" stroke-linecap="round" stroke-linejoin="round" stroke-dasharray="4.08 4.08"/>
</g>
</g>
</g>
<path d="M443.9 588.9H427.9C423.5 588.9 419.9 585.3 419.9 580.9V564.9C419.9 560.5 423.5 556.9 427.9 556.9H443.9C448.3 556.9 451.9 560.5 451.9 564.9V580.9C451.9 585.3 448.3 588.9 443.9 588.9Z" fill="#71A850"/>
<path opacity="0.52" d="M443.9 556.9H427.9C424.7 556.9 421.9 558.8 420.7 561.5L451.9 567.1V564.9C451.9 560.5 448.3 556.9 443.9 556.9Z" fill="#5F8C42"/>
<path d="M443.9 588.9H427.9C423.5 588.9 419.9 585.3 419.9 580.9V564.9C419.9 560.5 423.5 556.9 427.9 556.9H443.9C448.3 556.9 451.9 560.5 451.9 564.9V580.9C451.9 585.3 448.3 588.9 443.9 588.9Z" stroke="#444E59" stroke-width="4" stroke-miterlimit="10" stroke-linecap="round" stroke-linejoin="round"/>
<path d="M488.4 588.9H472.4C468 588.9 464.4 585.3 464.4 580.9V564.9C464.4 560.5 468 556.9 472.4 556.9H488.4C492.8 556.9 496.4 560.5 496.4 564.9V580.9C496.4 585.3 492.8 588.9 488.4 588.9Z" fill="#F09F54"/>
<path opacity="0.52" d="M488.4 556.9H472.4C469.2 556.9 466.4 558.8 465.2 561.5L496.4 567.1V564.9C496.4 560.5 492.8 556.9 488.4 556.9Z" fill="#D38444"/>
<path d="M488.4 588.9H472.4C468 588.9 464.4 585.3 464.4 580.9V564.9C464.4 560.5 468 556.9 472.4 556.9H488.4C492.8 556.9 496.4 560.5 496.4 564.9V580.9C496.4 585.3 492.8 588.9 488.4 588.9Z" stroke="#444E59" stroke-width="4" stroke-miterlimit="10" stroke-linecap="round" stroke-linejoin="round"/>
<path d="M532.4 540.9H516.4C512 540.9 508.4 537.3 508.4 532.9V516.9C508.4 512.5 512 508.9 516.4 508.9H532.4C536.8 508.9 540.4 512.5 540.4 516.9V532.9C540.4 537.3 536.8 540.9 532.4 540.9Z" fill="#2FA9ED"/>
<path opacity="0.52" d="M532.4 508.9H516.4C513.2 508.9 510.4 510.8 509.2 513.5L540.4 519.1V516.9C540.4 512.5 536.8 508.9 532.4 508.9Z" fill="#288FBC"/>
<path d="M532.4 540.9H516.4C512 540.9 508.4 537.3 508.4 532.9V516.9C508.4 512.5 512 508.9 516.4 508.9H532.4C536.8 508.9 540.4 512.5 540.4 516.9V532.9C540.4 537.3 536.8 540.9 532.4 540.9Z" stroke="#444E59" stroke-width="4" stroke-miterlimit="10" stroke-linecap="round" stroke-linejoin="round"/>
<path d="M488.4 492.9H472.4C468 492.9 464.4 489.3 464.4 484.9V468.9C464.4 464.5 468 460.9 472.4 460.9H488.4C492.8 460.9 496.4 464.5 496.4 468.9V484.9C496.4 489.3 492.8 492.9 488.4 492.9Z" fill="#E7534E"/>
<path opacity="0.52" d="M488.4 460.9H472.4C469.2 460.9 466.4 462.8 465.2 465.5L496.4 471.1V468.9C496.4 464.5 492.8 460.9 488.4 460.9Z" fill="#BF4040"/>
<path d="M488.4 492.9H472.4C468 492.9 464.4 489.3 464.4 484.9V468.9C464.4 464.5 468 460.9 472.4 460.9H488.4C492.8 460.9 496.4 464.5 496.4 468.9V484.9C496.4 489.3 492.8 492.9 488.4 492.9Z" stroke="#444E59" stroke-width="4" stroke-miterlimit="10" stroke-linecap="round" stroke-linejoin="round"/>
<path d="M521.8 517.9L531 523.2C532.3 524 532.3 525.9 531 526.6L521.8 531.9C520.5 532.7 518.8 531.7 518.8 530.2V519.6C518.8 518.1 520.5 517.1 521.8 517.9Z" fill="white"/>
<path d="M484.6 566.7H476.2C474.4 566.7 473 568.2 473 569.9V576.1C473 577.9 474.5 579.3 476.2 579.3H476.5L475.8 582.1C475.7 582.3 476 582.5 476.2 582.3L480.5 579.3H484.8C486.6 579.3 488 577.8 488 576.1V569.9C487.9 568.1 486.4 566.7 484.6 566.7Z" fill="white"/>
<path d="M429.7 572.9L433.4 576.6C433.9 577.1 434.7 577.1 435.2 576.6L443.5 568.3" stroke="white" stroke-width="4" stroke-miterlimit="10" stroke-linecap="round" stroke-linejoin="round"/>
<path d="M480.4 484.4C484.542 484.4 487.9 481.043 487.9 476.9C487.9 472.758 484.542 469.4 480.4 469.4C476.258 469.4 472.9 472.758 472.9 476.9C472.9 481.043 476.258 484.4 480.4 484.4Z" stroke="white" stroke-width="4" stroke-miterlimit="10" stroke-linecap="round" stroke-linejoin="round"/>
<path d="M420 437.9L419.8 422.9L409.8 423C409.2 421.1 408.5 419.4 407.5 417.7L414.5 410.5L403.8 400L396.8 407.2C395.1 406.3 393.3 405.6 391.4 405.1L391.3 395.1L376.3 395.3L376.4 405.3C374.5 405.9 372.8 406.6 371.1 407.6L363.9 400.6L353.4 411.3L360.6 418.3C359.7 420 359 421.8 358.5 423.7L348.5 423.8L348.7 438.8L358.7 438.7C359.3 440.6 360 442.3 361 444L354 451.2L364.7 461.7L371.7 454.5C373.4 455.4 375.2 456.1 377.1 456.6L377.2 466.6L392.2 466.4L392.1 456.4C394 455.8 395.7 455.1 397.4 454.1L404.6 461.1L415.1 450.4L407.9 443.4C408.8 441.7 409.5 439.9 410 438L420 437.9ZM384.5 442.5C378 442.6 372.8 437.4 372.7 430.9C372.6 424.4 377.8 419.2 384.3 419.1C390.8 419 396 424.2 396.1 430.7C396.1 437.2 390.9 442.4 384.5 442.5Z" fill="white"/>
<path d="M420 437.9L419.8 422.9L409.8 423C409.2 421.1 408.5 419.4 407.5 417.7L414.5 410.5L403.8 400L396.8 407.2C395.1 406.3 393.3 405.6 391.4 405.1L391.3 395.1L376.3 395.3L376.4 405.3C374.5 405.9 372.8 406.6 371.1 407.6L363.9 400.6L353.4 411.3L360.6 418.3C359.7 420 359 421.8 358.5 423.7L348.5 423.8L348.7 438.8L358.7 438.7C359.3 440.6 360 442.3 361 444L354 451.2L364.7 461.7L371.7 454.5C373.4 455.4 375.2 456.1 377.1 456.6L377.2 466.6L392.2 466.4L392.1 456.4C394 455.8 395.7 455.1 397.4 454.1L404.6 461.1L415.1 450.4L407.9 443.4C408.8 441.7 409.5 439.9 410 438L420 437.9ZM384.5 442.5C378 442.6 372.8 437.4 372.7 430.9C372.6 424.4 377.8 419.2 384.3 419.1C390.8 419 396 424.2 396.1 430.7C396.1 437.2 390.9 442.4 384.5 442.5Z" fill="#F09F54"/>
<path d="M420 437.9L419.8 422.9L409.8 423C409.2 421.1 408.5 419.4 407.5 417.7L414.5 410.5L403.8 400L396.8 407.2C395.1 406.3 393.3 405.6 391.4 405.1L391.3 395.1L376.3 395.3L376.4 405.3C374.5 405.9 372.8 406.6 371.1 407.6L363.9 400.6L353.4 411.3L360.6 418.3C359.7 420 359 421.8 358.5 423.7L348.5 423.8L348.7 438.8L358.7 438.7C359.3 440.6 360 442.3 361 444L354 451.2L364.7 461.7L371.7 454.5C373.4 455.4 375.2 456.1 377.1 456.6L377.2 466.6L392.2 466.4L392.1 456.4C394 455.8 395.7 455.1 397.4 454.1L404.6 461.1L415.1 450.4L407.9 443.4C408.8 441.7 409.5 439.9 410 438L420 437.9ZM384.5 442.5C378 442.6 372.8 437.4 372.7 430.9C372.6 424.4 377.8 419.2 384.3 419.1C390.8 419 396 424.2 396.1 430.7C396.1 437.2 390.9 442.4 384.5 442.5Z" fill="#F09F54"/>
<g opacity="0.29">
<path opacity="0.29" d="M416.2 423C416.2 423 416.2 423.1 416.2 423H419.9V422.9L416.2 423Z" fill="#F09F54"/>
<path opacity="0.29" d="M403.2 407.3L407.1 403.3L403.9 400.1L398.7 405.4C400.3 405.9 401.8 406.5 403.2 407.3Z" fill="#F09F54"/>
<path opacity="0.29" d="M390.5 419.1C389.4 419.1 388.4 419.3 387.5 419.5C392.4 420.9 396 425.3 396 430.6C396.1 436 392.4 440.6 387.5 442C388.5 442.3 389.7 442.5 390.8 442.4C397.3 442.3 402.4 437 402.4 430.6C402.4 424.2 397 419.1 390.5 419.1Z" fill="#F09F54"/>
<path opacity="0.29" d="M375.6 405.6L377.6 407.5C379.3 406.6 381 405.8 382.9 405.2L382.8 395.2L391.4 395.1V395L376.4 395.2L376.5 405.2C376.3 405.4 375.9 405.5 375.6 405.6Z" fill="#F09F54"/>
<path opacity="0.29" d="M383.4 456.5C381.5 456 379.7 455.3 378 454.4L376.2 456.3C376.5 456.4 376.8 456.5 377.1 456.6L377.2 466.6L383.5 466.5L383.4 456.5Z" fill="#F09F54"/>
<path opacity="0.29" d="M355 423.7L365 423.6C365.5 421.7 366.2 419.9 367.1 418.2L359.9 411.2L367.3 403.7L364.1 400.5L353.6 411.2L360.8 418.2C359.9 419.9 359.2 421.7 358.7 423.6L348.7 423.7L348.9 438.7L355.2 438.6L355 423.7Z" fill="#F09F54"/>
<path opacity="0.29" d="M403.7 454.1C402.3 454.9 400.9 455.5 399.4 456L404.6 461.1L407.7 457.9L403.7 454.1Z" fill="#F09F54"/>
<path opacity="0.29" d="M360.4 451L367.4 443.8C366.5 442.1 365.7 440.4 365.1 438.5L358.8 438.6C359.4 440.4 360.1 442.2 361 443.8L354 451L364.7 461.5L367.8 458.3L360.4 451Z" fill="#F09F54"/>
</g>
<path d="M420 437.9L419.8 422.9L409.8 423C409.2 421.1 408.5 419.4 407.5 417.7L414.5 410.5L403.8 400L396.8 407.2C395.1 406.3 393.3 405.6 391.4 405.1L391.3 395.1L376.3 395.3L376.4 405.3C374.5 405.9 372.8 406.6 371.1 407.6L363.9 400.6L353.4 411.3L360.6 418.3C359.7 420 359 421.8 358.5 423.7L348.5 423.8L348.7 438.8L358.7 438.7C359.3 440.6 360 442.3 361 444L354 451.2L364.7 461.7L371.7 454.5C373.4 455.4 375.2 456.1 377.1 456.6L377.2 466.6L392.2 466.4L392.1 456.4C394 455.8 395.7 455.1 397.4 454.1L404.6 461.1L415.1 450.4L407.9 443.4C408.8 441.7 409.5 439.9 410 438L420 437.9ZM384.5 442.5C378 442.6 372.8 437.4 372.7 430.9C372.6 424.4 377.8 419.2 384.3 419.1C390.8 419 396 424.2 396.1 430.7C396.1 437.2 390.9 442.4 384.5 442.5Z" stroke="#444E59" stroke-width="4" stroke-miterlimit="10" stroke-linecap="round" stroke-linejoin="round"/>
<path d="M357.5 654.2H233.8C229.7 654.2 226.4 650.9 226.4 646.8V562.2C226.4 558.1 229.7 554.8 233.8 554.8H357.6C361.7 554.8 365 558.1 365 562.2V646.8C364.9 650.9 361.6 654.2 357.5 654.2Z" fill="#444E59"/>
<path d="M364.9 570.9H226.4V562.2C226.4 558.1 229.7 554.8 233.8 554.8H357.6C361.7 554.8 365 558.1 365 562.2V570.9H364.9Z" fill="#BCBCBC"/>
<path d="M357.5 654.2H233.8C229.7 654.2 226.4 650.9 226.4 646.8V562.2C226.4 558.1 229.7 554.8 233.8 554.8H357.6C361.7 554.8 365 558.1 365 562.2V646.8C364.9 650.9 361.6 654.2 357.5 654.2Z" stroke="#444E59" stroke-width="4" stroke-miterlimit="10" stroke-linecap="round" stroke-linejoin="round"/>
<path d="M357.5 654.2H233.8C229.7 654.2 226.4 650.9 226.4 646.8V562.2C226.4 558.1 229.7 554.8 233.8 554.8H357.6C361.7 554.8 365 558.1 365 562.2V646.8C364.9 650.9 361.6 654.2 357.5 654.2Z" stroke="#444E59" stroke-width="4" stroke-miterlimit="10" stroke-linecap="round" stroke-linejoin="round"/>
<path d="M364.9 570.9H226.4V562.2C226.4 558.1 229.7 554.8 233.8 554.8H357.6C361.7 554.8 365 558.1 365 562.2V570.9H364.9Z" stroke="#444E59" stroke-width="4" stroke-miterlimit="10" stroke-linecap="round" stroke-linejoin="round"/>
<path d="M245.5 641.5H261.1" stroke="white" stroke-width="4" stroke-miterlimit="10" stroke-linecap="round" stroke-linejoin="round"/>
<path d="M234.5 641.5H235.6" stroke="white" stroke-width="4" stroke-miterlimit="10" stroke-linecap="round" stroke-linejoin="round"/>
<path d="M245.5 632.9H285" stroke="white" stroke-width="4" stroke-miterlimit="10" stroke-linecap="round" stroke-linejoin="round"/>
<path d="M234.5 632.9H235.6" stroke="white" stroke-width="4" stroke-miterlimit="10" stroke-linecap="round" stroke-linejoin="round"/>
<path d="M303.8 624.2H314.6" stroke="#64BDFF" stroke-width="4" stroke-miterlimit="10" stroke-linecap="round" stroke-linejoin="round"/>
<path d="M274.4 624.2H294.4" stroke="white" stroke-width="4" stroke-miterlimit="10" stroke-linecap="round" stroke-linejoin="round"/>
<path d="M245.5 624.2H265.3" stroke="#FF5F5F" stroke-width="4" stroke-miterlimit="10" stroke-linecap="round" stroke-linejoin="round"/>
<path d="M234.5 624.2H235.6" stroke="white" stroke-width="4" stroke-miterlimit="10" stroke-linecap="round" stroke-linejoin="round"/>
<path d="M278.8 615.6H327" stroke="white" stroke-width="4" stroke-miterlimit="10" stroke-linecap="round" stroke-linejoin="round"/>
<path d="M245.5 615.6H270.7" stroke="#64BDFF" stroke-width="4" stroke-miterlimit="10" stroke-linecap="round" stroke-linejoin="round"/>
<path d="M234.5 615.6H235.6" stroke="white" stroke-width="4" stroke-miterlimit="10" stroke-linecap="round" stroke-linejoin="round"/>
<path d="M278.8 607H296.8" stroke="#FF5F5F" stroke-width="4" stroke-miterlimit="10" stroke-linecap="round" stroke-linejoin="round"/>
<path d="M245.5 607H270.7" stroke="#FFBE78" stroke-width="4" stroke-miterlimit="10" stroke-linecap="round" stroke-linejoin="round"/>
<path d="M234.5 607H235.6" stroke="white" stroke-width="4" stroke-miterlimit="10" stroke-linecap="round" stroke-linejoin="round"/>
<path d="M282.3 598.4H287.2" stroke="#64BDFF" stroke-width="4" stroke-miterlimit="10" stroke-linecap="round" stroke-linejoin="round"/>
<path d="M263.3 598.4H274.4" stroke="#FF5F5F" stroke-width="4" stroke-miterlimit="10" stroke-linecap="round" stroke-linejoin="round"/>
<path d="M245.5 598.4H254.7" stroke="#C383F2" stroke-width="4" stroke-miterlimit="10" stroke-linecap="round" stroke-linejoin="round"/>
<path d="M234.5 598.4H235.6" stroke="white" stroke-width="4" stroke-miterlimit="10" stroke-linecap="round" stroke-linejoin="round"/>
<path d="M318.3 589.7H327" stroke="#64BDFF" stroke-width="4" stroke-miterlimit="10" stroke-linecap="round" stroke-linejoin="round"/>
<path d="M273.2 589.7H307.3" stroke="#FF5F5F" stroke-width="4" stroke-miterlimit="10" stroke-linecap="round" stroke-linejoin="round"/>
<path d="M245.5 589.7H265.8" stroke="#FFBE78" stroke-width="4" stroke-miterlimit="10" stroke-linecap="round" stroke-linejoin="round"/>
<path d="M234.5 589.7H235.6" stroke="white" stroke-width="4" stroke-miterlimit="10" stroke-linecap="round" stroke-linejoin="round"/>
<path d="M296.8 581.1H314.6" stroke="#FFBE78" stroke-width="4" stroke-miterlimit="10" stroke-linecap="round" stroke-linejoin="round"/>
<path d="M274.4 581.1H288.2" stroke="#6DBF7B" stroke-width="4" stroke-miterlimit="10" stroke-linecap="round" stroke-linejoin="round"/>
<path d="M259.4 581.1H267.2" stroke="#FFBE78" stroke-width="4" stroke-miterlimit="10" stroke-linecap="round" stroke-linejoin="round"/>
<path d="M245.5 581.1H251.9" stroke="#6DBF7B" stroke-width="4" stroke-miterlimit="10" stroke-linecap="round" stroke-linejoin="round"/>
<path d="M234.5 581.1H235.6" stroke="white" stroke-width="4" stroke-miterlimit="10" stroke-linecap="round" stroke-linejoin="round"/>
<path d="M240.1 565.4C241.481 565.4 242.6 564.281 242.6 562.9C242.6 561.52 241.481 560.4 240.1 560.4C238.719 560.4 237.6 561.52 237.6 562.9C237.6 564.281 238.719 565.4 240.1 565.4Z" fill="#E7534E"/>
<path d="M249.1 565.4C250.481 565.4 251.6 564.281 251.6 562.9C251.6 561.52 250.481 560.4 249.1 560.4C247.719 560.4 246.6 561.52 246.6 562.9C246.6 564.281 247.719 565.4 249.1 565.4Z" fill="#444E59"/>
<path d="M258.2 565.4C259.581 565.4 260.7 564.281 260.7 562.9C260.7 561.52 259.581 560.4 258.2 560.4C256.819 560.4 255.7 561.52 255.7 562.9C255.7 564.281 256.819 565.4 258.2 565.4Z" fill="#444E59"/>
<path d="M406.8 579.7H317.2C312.8 579.7 309.2 576.1 309.2 571.7V490.8C309.2 486.4 312.8 482.8 317.2 482.8H406.8C411.2 482.8 414.8 486.4 414.8 490.8V571.7C414.8 576.1 411.2 579.7 406.8 579.7Z" fill="white"/>
<path d="M406.8 579.7H317.2C312.8 579.7 309.2 576.1 309.2 571.7V490.8C309.2 486.4 312.8 482.8 317.2 482.8H406.8C411.2 482.8 414.8 486.4 414.8 490.8V571.7C414.8 576.1 411.2 579.7 406.8 579.7Z" fill="white"/>
<path d="M406.8 579.7H317.2C312.8 579.7 309.2 576.1 309.2 571.7V490.8C309.2 486.4 312.8 482.8 317.2 482.8H406.8C411.2 482.8 414.8 486.4 414.8 490.8V571.7C414.8 576.1 411.2 579.7 406.8 579.7Z" stroke="#444E59" stroke-width="4" stroke-miterlimit="10" stroke-linecap="round" stroke-linejoin="round"/>
<path d="M405.1 491H318.3V548.7H405.1V491Z" fill="#9483C4"/>
<path d="M405.1 491H318.3V548.7H405.1V491Z" stroke="#444E59" stroke-width="4" stroke-miterlimit="10" stroke-linecap="round" stroke-linejoin="round"/>
<path d="M318.3 557.9H373.1" stroke="#444E59" stroke-width="4" stroke-miterlimit="10" stroke-linecap="round" stroke-linejoin="round"/>
<path d="M318.3 567.1H350.7" stroke="#444E59" stroke-width="4" stroke-miterlimit="10" stroke-linecap="round" stroke-linejoin="round"/>
<path d="M327 538.4L345.7 519.9L363.1 537.3" stroke="#444E59" stroke-width="4" stroke-miterlimit="10" stroke-linecap="round" stroke-linejoin="round"/>
<path d="M395.7 538.4L373.1 508.9L355 529.1" stroke="#444E59" stroke-width="4" stroke-miterlimit="10" stroke-linecap="round" stroke-linejoin="round"/>
<path d="M395.5 567C398.206 567 400.4 564.806 400.4 562.1C400.4 559.394 398.206 557.2 395.5 557.2C392.794 557.2 390.6 559.394 390.6 562.1C390.6 564.806 392.794 567 395.5 567Z" stroke="#444E59" stroke-width="4" stroke-miterlimit="10" stroke-linecap="round" stroke-linejoin="round"/>
<path d="M351.2 515.1C354.624 515.1 357.4 512.324 357.4 508.9C357.4 505.476 354.624 502.7 351.2 502.7C347.776 502.7 345 505.476 345 508.9C345 512.324 347.776 515.1 351.2 515.1Z" fill="#F09F54"/>
<path d="M351.2 515.1C354.624 515.1 357.4 512.324 357.4 508.9C357.4 505.476 354.624 502.7 351.2 502.7C347.776 502.7 345 505.476 345 508.9C345 512.324 347.776 515.1 351.2 515.1Z" stroke="#444E59" stroke-width="4" stroke-miterlimit="10" stroke-linecap="round" stroke-linejoin="round"/>
<path d="M307.5 454.3H334.3" stroke="#444E59" stroke-width="4" stroke-miterlimit="10" stroke-linecap="round" stroke-linejoin="round"/>
<path d="M293.2 454.3H300.3" stroke="#444E59" stroke-width="4" stroke-miterlimit="10" stroke-linecap="round" stroke-linejoin="round"/>
<path d="M320.9 441.9H334.3" stroke="#444E59" stroke-width="4" stroke-miterlimit="10" stroke-linecap="round" stroke-linejoin="round"/>
<path d="M310.1 441.9H314.1" stroke="#444E59" stroke-width="4" stroke-miterlimit="10" stroke-linecap="round" stroke-linejoin="round"/>
<path d="M278.5 532.7H299.4" stroke="#444E59" stroke-width="4" stroke-miterlimit="10" stroke-linecap="round" stroke-linejoin="round"/>
<path d="M267.4 532.7H272.9" stroke="#444E59" stroke-width="4" stroke-miterlimit="10" stroke-linecap="round" stroke-linejoin="round"/>
<path d="M290.9 520.3H299.4" stroke="#444E59" stroke-width="4" stroke-miterlimit="10" stroke-linecap="round" stroke-linejoin="round"/>
<path d="M280.5 520.3H283.7" stroke="#444E59" stroke-width="4" stroke-miterlimit="10" stroke-linecap="round" stroke-linejoin="round"/>
<path d="M611.8 387.6H631.6" stroke="#444E59" stroke-width="4" stroke-miterlimit="10" stroke-linecap="round" stroke-linejoin="round"/>
<path d="M599.6 387.6H605.2" stroke="#444E59" stroke-width="4" stroke-miterlimit="10" stroke-linecap="round" stroke-linejoin="round"/>
<path d="M623.1 375.2H631.6" stroke="#444E59" stroke-width="4" stroke-miterlimit="10" stroke-linecap="round" stroke-linejoin="round"/>
<path d="M612.8 375.2H615.9" stroke="#444E59" stroke-width="4" stroke-miterlimit="10" stroke-linecap="round" stroke-linejoin="round"/>
<path d="M627.2 457.5H549C544.2 457.5 540.4 453.6 540.4 448.9V411C540.4 406.2 544.3 402.4 549 402.4H627.2C632 402.4 635.8 406.3 635.8 411V448.8C635.8 453.6 632 457.5 627.2 457.5Z" fill="#2FA9ED"/>
<path d="M627.2 457.5H549C544.2 457.5 540.4 453.6 540.4 448.9V411C540.4 406.2 544.3 402.4 549 402.4H627.2C632 402.4 635.8 406.3 635.8 411V448.8C635.8 453.6 632 457.5 627.2 457.5Z" stroke="#444E59" stroke-width="3" stroke-miterlimit="10" stroke-linecap="round" stroke-linejoin="round"/>
<path opacity="0.56" d="M588.1 417.2H621.9" stroke="white" stroke-width="3" stroke-miterlimit="10" stroke-linecap="round" stroke-linejoin="round"/>
<path opacity="0.56" d="M588.1 428.1H610.5" stroke="white" stroke-width="3" stroke-miterlimit="10" stroke-linecap="round" stroke-linejoin="round"/>
<g opacity="0.56">
<path opacity="0.56" d="M605.1 444.4H591.5C589.7 444.4 588.2 442.9 588.2 441.1C588.2 439.3 589.7 437.8 591.5 437.8H605.1C606.9 437.8 608.4 439.3 608.4 441.1C608.4 442.9 607 444.4 605.1 444.4Z" fill="white"/>
<path opacity="0.56" d="M605.1 444.4H591.5C589.7 444.4 588.2 442.9 588.2 441.1C588.2 439.3 589.7 437.8 591.5 437.8H605.1C606.9 437.8 608.4 439.3 608.4 441.1C608.4 442.9 607 444.4 605.1 444.4Z" stroke="white" stroke-width="3" stroke-miterlimit="10" stroke-linecap="round" stroke-linejoin="round"/>
</g>
<path d="M574 444.9H556.1C553.5 444.9 551.5 442.8 551.5 440.3V419.4C551.5 416.8 553.6 414.8 556.1 414.8H574C576.6 414.8 578.6 416.9 578.6 419.4V440.3C578.6 442.8 576.6 444.9 574 444.9Z" stroke="white" stroke-width="3" stroke-miterlimit="10" stroke-linecap="round" stroke-linejoin="round"/>
<path d="M565.1 431.2C567.751 431.2 569.9 429.051 569.9 426.4C569.9 423.749 567.751 421.6 565.1 421.6C562.449 421.6 560.3 423.749 560.3 426.4C560.3 429.051 562.449 431.2 565.1 431.2Z" stroke="white" stroke-width="3" stroke-miterlimit="10" stroke-linecap="round" stroke-linejoin="round"/>
<path d="M556 444.4C556 439.4 560.1 435.3 565.1 435.3C570.1 435.3 574.2 439.4 574.2 444.4" stroke="white" stroke-width="3" stroke-miterlimit="10" stroke-linecap="round" stroke-linejoin="round"/>
</svg>
